<?xml version="1.0" encoding="UTF-8"?>
<svg id="Layer_2" data-name="Layer 2" xmlns="http://www.w3.org/2000/svg" viewBox="0 0 1283.6 823.82">
  <g id="Layer_2-2" data-name="Layer 2">
    <g id="BA94mP.tif">
      <g>
        <path d="M400.97,0c19.26,7.55,39.24,13.12,59.85,17.76l2.28-3.07,111.66-3.63,21.11,5.13,3.98-2.7,60-2.45c2.76-.11,5.46,3.24,5.52,5.9l1.5,75.13,4.01,183.67c-6.89,17.89-11.92,35.43-15.9,54.11l-5.57,26.15-1.46,9.78-3.06,26.94c-.94,8.26-4.07,16.02-.67,24.58l2.87-9.22c.32-1.04,3.46-2.13,4.51-1.43l-2.48,16.39c-.33,2.19-.38,5.24-.1,6.66l5.08-2.44.36,7.48,3.03-2.43,2.57,8.73c-2.57,8.75-2.34,16.56-2.21,26.86l-2.39-8.11-3.79,6.87-.84,4.96-3.25,11.35c-2.33-2.05-2.73-5.24-3.01-9.22-3.82,4.88-4.51,10.9-2.27,15.91l3.54-2.62,1.51,8.9,4.03-2.2,2.14,9.04-4.9,1.1-.51,5.53c-1.76-1.48-2.71-2.41-3.12-1.93l-2.79,3.34c-2.68-6.54-4.17-13.24-5.28-20.05-2.12-2.28-2.21-5.64-1.57-9.18,1.25-2.93,3.02-6.14.07-9.33l-1.1,13.73c-.48,6.02.43,11.48-1.95,16.78l-1.19-14.57c-.36-4.37,3.99-9.55-.94-13.96l-1.1,22.79.46,11.27c.08,1.89.68,3.78,1.41,5.52l6.46,15.51,2.74,5.71c.52,1.08,1.07,3.75.72,4.89s-2.09,3.28-3.26,3.04l-2.86-.59c-.5-.1-.13,1.67,0,2.22l1.65,7.52c1.07,4.9,8.83,14.75,13.87,16.39,4.83,6.09,10.26,7.32,17.73,7.77l14.99.92,19.94-.41,14.96-1.4,21.03-1.31,25.46-1.58,16.43-2.86c9.71-.29,17.4.04,25.75-5,4.51-2.72,8.94-5.25,12.74-9.32,5.5-5.88,12.49-11.17,15.83-18.65l5.34-11.93,5.6-8.57c4.22-6.45,7.33-14.15,10.42-21.25l4.61-10.6,8.39-17.49c6.03-12.58,9.16-24.41,11.16-38.03l10.16-47.58,3.83-17.15,4.99-32.03,3.4-20.31,1.96-17.84,2.79-21.13.89-7.74c2.98-9.28,4.56-17.08,5.38-27.1,5.46-.74,11.54-.36,16.9.29l7.84-1.39c1.42-.25,5.24-2.13,6.2-1.08l3.74,4.1,10.67,2.63-3.54,17.99-11.29-5.59-.44,55.14c-.06,8.1-4.01,16.15-5.68,23.86l-6.03,27.85-3.96,8.76-3.62,7.7-2.63,8.91-6.89,17.49-6.62,25.32c.87,1.13,1.93,2.26,1.97,2.95.05.87-.49,2.42-.94,3.67l-2.67,7.46-4.08,16.06,1.2,8.35c-5.3-2.26-1.05-7.35-5.19-6.8l-5.75,19.61-2.93,10.5,4.03-2.58c-2.06,6.27-6.55,10.76-11.39,14.91-.55,1.77-1.47,5.08-2.5,6.33l-4.17,5.06c-2.09,2.53-3.54,5.04-4.63,8.03l-5.11,14.04-5.64,24.16c-.12.51-1.26,2.5-.73,2.61l2.69.57c3.97.84,8.33,1.23,11.39-1.45.52-.46,2.97-1.44,3.22-.81l1.47,3.67c-1.08-.05.75.04,1.39.07l2.35-1.26c1.71-.92,2.77,5.13,3.6,5.11l3.54-.09,3.76,3.3,9.2,10.41c7.02-3.42,10.88,3.25,19.57-.56l11.38.54c7.61.36,17-7.71,19.88-16.69l4.47-13.94,4.54-17.53c3.94-15.2,6.91-29.61,9.04-45.22l4.85-15.76,4.1-10.5,3.58-16.43c1.71-7.83,5.39-14.7,7.78-22.39l1.68-5.4c4.3-9.72,9.68-19.23,10.62-29.99.89-10.17,1.84-19.62,4.93-29.43,1.45-4.59,1.95-9.29,1.88-14.19l8.41-4.29c-2.43-1.23-3.55-2.75-4.48-5.06-2.16-5.39-1.51-8.09.92-12.87,7.47-14.7,1.86-27.1,8.24-32.46,5.21-4.38,4.48-8.59,4.31-14.75-.18-6.56,4.34-13.98,6.53-19.35,1.46-3.6-4.86-7.88-3.59-10.84.57-1.32,2.17-3.16,3.52-4.67,6.2-6.91,13.76-.96,19.93-4.91,8.62-5.53,16.9-7.02,26.77-7.04l13.55-.03c10.55-.02,14.75-1.18,24.83-6.83,12.25-6.87,18.18-23.1,22.73-36.19l8.49-24.43c-6.88-3.11-14.6-6.59-22.27-6.47l-22.15.33-9.95.82-31.76-.39-11.37.14-17.73-.91c-9.83-.5-19.58,1.21-28.89,4.18-3.57,3.81-8.04,6.1-13.13,7.23l-8.02-.15c-1.62-.03-4.15-2.42-6.5-3.73,2.3-1.88,5.54-1.59,8.66-.03l7.01-2.08,1.27-.99-16.65.47-28.43,16.4c-.32.18-1.14.87-.92,1.04l2.29,1.67c.23.21-3.61,1.58-4.75,2.39l-9.6,6.87-.57,5.16c1.8,3.25.26,7.44-2.1,9.8-.02,5.83-5.19,8.25-.05,13.55-.64.57-2.02,1.02-2.4.49l-2.05-2.9c-2.93.78-5.58,3.18-9.18-1.33,2.66-1.25,5.57-2.17,9.63-3.19l-3.75-6.57c-3.36,4.71-7.41,6.5-11.74,4.54l-1.98-7.84,2.87-2.22-4.42-.09c-.97-.02-2.22-2.5-2.2-3.48.03-1.17,2.02-2.37,4.12-3.28l-.51-11.8c-.02-.49-2.23-1.62-2.03-2.06l1.17-2.48-1.04-1.38c-.49-.65,3.52-.46-.62-10.75l-3.11-7.73c-.03-.28-.13-1.21-.08-1.23.08-.04-1.21-.77-1.58-1.01-.33-.21-.22.21-1.04,2.5.36.12-1.52-.51-2.56-.86-.7-.24.38-2.01,1.39-2.94-1.98-4.08-5.75-6.69-10.34-8.41l-18.03-6.74-8.6-2.48c-4.99-1.44-9.8-.58-14.86,0-6.39.74-13.17.18-19.23,1.99l-18.57,5.56-8.63,2.24c-13.18,4.66-26.87,6.62-39.52,12.72-7.57,3.65-14.18,9.84-20.63,15.2l-10.47,8.7-7.03,6.67-6.74,6.23-17.04,17.01-9.09,14.92-.26-26.98c-.51-52.94-6.66-104.94-13.27-157.39-.94-7.43-.45-13.17.82-20.43.38-2.19-1.19-7.58,2.95-8.23l17.07-2.68,32.78-4.3c2.55-.33,5.33-2.03,7.49-3.82l65.61.72,13.96-2.7h131.96s40.83,22.01,40.83,22.01c.93-1.71,2.13-2.91,3.33-2.78,25.15,2.82,48.85,8.08,72.24,17.22l9.92,9.89c.43.42,2.58-.62,3.18-1.16,36.75,14.13,69.58,36.61,97.88,64.48,32.23,31.75,56.86,69.22,75.82,110.15,5.47,11.8,9.18,22.96,11.4,35.24,9.87,23,13.87,46.77,13.94,71.38l.15,56.45-.6,12.23c-1.34,27.27-6,54.08-15.07,79.71l-6.26,17.7c-9.7,27.43-31.36,67.01-50.3,88.89l-21.81,25.19-7.86,8.08c-66.13,65.17-155.9,98.6-248.71,96.71l-17.97-.37-28.17-.26-18.67.1-20.35-.07-11.87-.22c-7.35-.14-15.3,1.23-22.27.18l-4.83.69-131.75-.03c-3.15-4.32-6.08-.23-8.92-.23l-41.32.05-86.95.09h-57.95s-87.04.16-87.04.16c-2.93,0-6.56-2.07-8.01-4.77l-93.9-175.9c.35-4.09,2.78-7.55,4.6-11.07,2.71-5.24,4.34-11.02,6.16-16.63l2.98-9.2,11.69-37.39,7.93-27.96,17.76,1.8c10.73,1.09,13.58,3.43,19.72,8.59,10.06,8.45,16.19,18.83,17.42,32.16l2.61,28.18,1.42,30.67,2.05,38.06c.44,8.25,2.84,17.11,6.19,24.45l8.46,18.53c2,4.38,4.1,8.28,7.5,11.58,5.5-3.98,9.23.3,11.75,3.48,4.06-.54,11.39.83,14.27,3.25l1.95-2.12,14.93,1.2c3.01.24,8.19-1.45,11.03-2.25l.82-4.35c2.2,2.08,3.11,2.77,4.89,2.73,1.1-.02,3.06-1.59,4.03-2.28,6.53-1.81,5.49-8.89,13.66-10.17l4.31-7.28c.12-3.67-2.38-9.31-3.44-13.32-1.32-4.99-2.82-7.77-5.48-11.97l-5.03-7.92c-5.23-8.23-6.91-16.82-6.73-26.68.44-24.31-.56-47.95-3.48-72.03-1.68-13.82-3.93-26.21-10.33-38.97-5.74-11.43-14.2-22.01-24.52-30.02l-15.73-10.08c5.18-4.77,11.74-4.02,18.46-5.34,8.08-1.59,14.86-8,22.29-11.19,6.4-2.75,11.93-5.38,17.05-10.05l22.97-20.97c4.2-3.83,7.35-7.67,10.94-12.21l7.81-9.89,8.49-11.86c4.25-5.94,14.99-31.64,16.69-39.75l2.58-12.32c2.35-11.2,1.33-35.24-6.19-43.54l-13.05-14.39c-2.23-2.46-6.84-5.23-9.66-6.51l-15.23-6.91-14.39-4.79-14.96-4.33c-26.12-7.55-52.91-10.01-80.8-9.3l.02-161.37c0-4.96,4.17-7.41,7.51-9.11h4ZM558.53,599.57c3.67-1.54.26-6.31,5.34-12.5l-.31,10.6c2.88-4.34,2.87-4.75,5.34-7.03l2.04-8.67c.25-1.05,2.66-3.38,2.84-2.85-.83,6.2-1.53,9.61-.71,14.74l4.01-5.81c.59-.86,3.79-2.02,3.44-3l-1.55-4.28,2.17-10.51c-2.22-.94.54-2.93,1.67-3.3l1.5-9.13c2.1-12.71,7.83-15.03,7.65-19.02-.24-5.34.56-10.14,2.54-15.06,1.49-3.69,1.04-7.57,1.97-11.41l3.08-12.72c.81-3.35,1.65-6.17,2.02-9.46l2.99-26.32,2.18-19.95,4-18.94,1.17-12.05,3.8-14.08c-4.18-2.01-1.56-6.77-.81-9.57l1.74-6.53,4.43-17.15,2.87-8.37c-.11-4.09.76-8.38,2.53-12.55-.58-6.87,1.19-13.62,4.2-19.84.48-7.32,2.2-14.2,5.21-20.78l1.47-11.31,3.53-12.32,5.35-19.07c1.81-6.44,3.69-13.58,3.86-20.45.25-10,.98-19.05,2.63-28.98s1.81-19.39-4.26-27.31l-8.61-4.47c-5.99.34-12.43.11-17.59,2.27l-12.78,5.33-18.18,9.58c-4.46,2.35-5.68,6.32-7.08,10.93-3.15,10.39-8.87,20.3-10.28,31.2-1.63,12.63-4.68,24.16-7.76,36.57l-7.61,30.69c-6.48,18.32-12.89,35.87-16.67,54.97-1.59,8.03-4.64,15.31-6.79,23.08l-9.78,35.29c-8.3,29.97-8.11,44.53-12.46,71.4l-2.79,17.22-2.51,16.82-8.96,44.14-3.46,14.75c-1.03,4.39-2.29,8.64-.44,12.68,3.18-4.35,6.03-7.96,9.78-9.08s6.36.95,7.68,3.81l3.7,8.02,2.45-6.02,1.79,1.94c3.67-4.88,2.86-10.94,5.49-11.36,1-.16,3.28.28,3.5,1.2l1.22,5.07,2.14-5.68c-.16-.2,1.13,1.93,1.44,1.48l1.51-2.19c.94.11,2.18,2.4,1.81,3.43l-1.82,5.01c2.46-1.48,3.86-6.07,4.51-8.22.18-.59,2.84-.61,2.78,0l-.19,1.96c-.05.47-.53,2.46-.07,2.35l2.7-.59-.68,4.49,2.98-3.88,2.01,2.78,5.18-5.61-.2,10.72c0,.46.88,2.36,1.1,2l.66-1.06.87-2.4c.11-.31.72.01.78.37l.67,3.95ZM935.13,197.36l-9.99-.58,6.02-1.29,1.43-3.51-6.57,1.72c-.49.62-.98,3.05-1.76,3.31l-4.01,1.32,8.59,1.26,6.3-2.23ZM650.47,455.59c1.98.27,4.03-1.53,3.9-2.87-.19-1.98-.74-3.84-1.61-5.66-2.4,2.67-3.15,5.86-2.29,8.53Z"/>
        <path d="M0,705.02l.45-70.1,1.22,18.66,1.55,37.41c.08,1.86.85,4.79,1.58,7.09l-.2-20.17-.5-50.86-4.11-6.05v-63.98s2.94-3.19,2.94-3.19l.64-43.88c.03-2.25,1.63-5.68,2.65-7.59l.54-69.35,2.64-70.57c-2.25-5.33-2.84-10.54-2.32-16.23l1.24-35.21c5.6-6.13,6.1-12.96,6.9-21.7l1.37,4.83c.63-4.15,2.02-9.29,1.75-13.75-.34-5.56-2.92-10.89-3.61-16.44-.82-6.58-.2-13.85.62-20.15,2.16-1.2,3.75-2.99,3.9-5.13.71-9.94,2.29-18.94,4.04-28.09-2.39-5.06-2.58-10.94-2.09-16.6-2.37-8.05-.27-15.04,1.71-22.63,2.37-9.1,1.42-18.85,1.43-28.33l.04-42.62c0-4.81.62-7.89-.23-12.51-1.6-8.76-1.37-17.79-1.77-26.92-.14-3.25,1.68-6.85,2.49-9.89,2.05-7.78,1.71-15.81,1.78-24.77,52.14-1.71,103.28-4.58,155.25-8.71l62.1-4.93,28.15,1.36c4.36.21,6.92-.4,9.42,3.5l28.5,44.34c6.12,9.52,12.23,18.03,18.96,27.17,1.4,1.9,4.58,3.87,6.73,5.15l41.58,78.08-26.45,6.8c-4.55-.62-8.91-.39-13.44.33-4.73.6-7.95,1.85-12.1,4.18-10.87,6.09-21.94-.02-28.09,14.75-5.44,13.06-9.32,26.31-12.95,40-1.59,6.02-4.67,11.77-5.9,17.81-2.31,11.35-4.42,22.08-8.14,32.92l-3.09,8.99-11.37,35.76-3.8,15.18c-1.71,6.83-2.9,14.19-5.2,20.83-4.28,12.4-8.63,24.11-10.98,37.01l-3.74,20.6-6.29,23.24-3.93,13.04-8.17,35.95-15.32,58.53c-2.79,10.64-6.54,20.16-6.69,31.48l7-9.66,2.09-1.98c.88-.83-2.04-4.6-.63-5.16.52-.21,2.09-.83,1.36-.54l1.68,4.54c2.29-1.4,3.94-2.64,5.18-2.68,1.07-.04,3.43,1.32,4,1.84l2.74,9.94,2.24-6.33,1.11.86.21,3.82,5.58-15.86c1.09,2.34.9,3.19.45,4.8l3.03,6.68,4.51-10.63,2.51,2.81c.3.33,1.41.23,2.23.26l.92,5.65c1.26-2.18,2.67-4.66,3.32-5.09l4.35,2.71c.8-3.11,2.15-4.2,5.01-3.61,2.44.5,3.34,2.99,2.69,5.67l-1.68,7.03,5.5-1.48c3.21-.86-3.72-5.92.39-12.7l1.08,3.3c1.88-2.11,2.95-3.14,5.4-4.33l-5,12.11,1.61.29,3.43-9.66c3.79,7.28-1.66,15.99-.24,19.12.13.29,1,.36,1.03.05l.29-2.57,3.69-11.01c3.17-3.12,4.47-6.48,6.07-10.37l3.91-9.52c1.77,11.57-7.95,19.41-6.28,33.86l1.95-1.67c.32-.27,1.18.76,2.14,1.61l9.02-27.76c1.02,8.59.58,15.49.37,22.91l-.43,14.74v21.92s-.44,83.01-.44,83.01c-2.59,5.99-9.57,4.31-14.26,4.27l-20.8-.19c-10.06-.09-21.24,1.2-31.06.06l-5.08.76-147.73-.06h-11.18s-46.93.06-46.93.06c-1.1-.37-3.41-.8-3.58-1.63l-.86-4.08L0,705.02Z"/>
        <path d="M621.11,775.76l-3.18,5.86-20.68.69-.95,18.25,7.58.1.65,1.97c.19.57,2.18.19,2.81.12l8.99-.98-5.92-1.57,8.68-1.92-.71,5.16c.46-.15,1.74-.65,2.14-.19l2.36,2.68c1.2.51,4.24,1.24,4.2,2.4-.04,1.22-.55,4.36-.72,4.38l-14.34-.03c-2.57,0-4.97-.26-6.86-.92-6.25,2.04-13.16,3.35-20.65,1.52l-2.19-26.33-6.99,14.63c-1.76,3.69-6.68,8.28-9.72,10.92l-14.66,4.08-5.52,1.3c-1.32.29-3.61-1.05-5.33-1.95l-8.02-.48-1.21-14.68c-1.07,4.26-1.53,8.5-3.92,12.46-1.12,1.86-7.3.24-7.97-1.32l-2.56.13c-.73.04-1.97-1.71-2.24-2.43l-16.43-44.12c-1.5,11.1-.26,21.4.1,32.47l.47,14.38c.06,1.75-2.28,4.67-3.87,4.73-.31.01-.92-1.89-1.14-2.1l-.63-.6c-.33-.31-1.15,2.34-1.57,2.64-2.61,1.82-8.29-1.21-8.44-6.08-.75-23.4-1.26-46.33.25-69.7,3.57-4.79,12.95-5.21,16.14-.51,6.98,10.27,12.06,20.71,16.29,32.1.18-4-.14-9.74,1.16-13.2l2.66-7.1,3.3-9.29,1.01-2.98c.21-.63-.49-1.4-1.59-3.1.33-.65,3.35-2.26,4.77-2.4,1.63-.16,4.04,3.2,3.97,5.07l-.97,26.13c-.19,5.03-1.07,9.69.99,15.12l.71-16.01.48-9.18c.28-5.36,1.35-10.85,2.92-16.2,7.4-4.34,25.14-2.86,33.12,1.66,3.99,2.26,9.84,7.13,10.88,11.64l4.85,20.88,3.29-8.6c-2-3.93.18-7.62,1.79-10.3-1.14-5.42-.85-9.25,2.65-13.68s10.6-4.68,15.25-3.94l2.85.45c.31.05.54.4.3.63l-1.3,1.27,3.25.85c.43.11-1.02,1.13-2.14,1.91l2.05,2.06c1.06,1.06,7.53-2.66,5.81.03-.31.49,1.13-1.77,1.48-2.31,2.08-.08,5.82,1.22,8.03,2.43.11-2.21.9-6.03,2.56-6.65,7.12-2.64,24.93-3.78,30.89-.34l8.8,5.08c6,10.1,4.53,21.47,1.56,32.45-1.45,5.39-3.47,8.07-9.03,9.9l-8.08,2.66c-4.87,1.61-9.45,2.81-14.46.16l.61,25.05c-4.35-1.84-6.62-4.36-7.28-8.4l-6.24,2.07-.03-13.44,1.25-42.43-31.21,2.61,1.16,13.96,8.93.4-9.47,3.1,10.63.13,4.31-.03,6.02.32c1.42.08,3.75,3.25,3.33,4.48ZM639.17,780.73c3.78-2.33,9.36-5.13,12-9.36,5.51-8.82,7.28-24.68-.12-23.92l-13.5,1.39.76,14.17.87,17.72ZM567.34,784.04l1.99-12.04c1.22-7.39,1.53-11.81-3.92-17.22-3.27-3.25-5.53-5.62-10.41-5.85l-10.62-.49c1.16,18.1,1.44,36,.4,54.44-.11,1.91.58,5.41,2.42,5.54,1.4.09,4.57-1.29,5.1-1.79-1.01-1.37-1.18-2.05-.71-2.12l1.99-.28c.71-.1,2.81.5,2.89-.21l.41-3.95c5.11-4.02,9.77-8.99,10.46-16.02Z"/>
        <path d="M343.1,361.48c-.03-5.06.67-9.46,1.64-14.42l6.63-34.06,6.68-45.16c-2.04,3.51-2.66,6.95-3.41,11.19l-3.28-1.28c.43-3.13,2.72-8.79,2.78-11.78.12-5.85.2-10.32,1.71-15.75l.9-9.29.93-3.15c.25-.86,3.26.34,3.11,1.03l-1.35,10.1c1.18-1.77,2.19-6.27,2.54-8.93.15-1.11,3.28-1.7,4.47-1.94,10.73-2.16,22.87,1.68,37.03,1.78,8.81.06,16.91,1.18,25.65,2.38,6.76.93,21.01.32,22.62,7.83s.19,15.08-3.56,21.11l-11.52,18.51c-7.49,12.04-16.83,22.2-26.37,32.55-5.82,6.32-11.46,10.93-18.68,15.59-5.77,3.72-10.47,10.23-17.27,12.59l-23.12,8.01-8.13,3.09Z"/>
        <path d="M862.9,773.44l-3.69-6.61.43,24.91c.02,1.17-.94,3.73-.65,5.02,1.5,6.61,1.53,12.04.13,18.41l-11.12,2.91c-2.17-.93-3.65-1.05-5.86-.9l-19.3,1.3c-3.53.24-9.35.48-11.98-.94-4.07-2.21-1.41-7-1.41-9.79l-.05-32.18,1.62-12.44-1.08-16.87c4.8-3.66,10.27-3.27,16.04-3.72l16.55-1.29c2.03,4.35,1.44,9.95.07,14.65l-18.29.26.47,17.34,10.35-1.63c4.21,3.52,4.03,7.56,3.71,14.31l-13.72,1.69.26,15.69,14.83-.3c1.1-.02,3.21.85,4.64,1.49l-.48-52.77c-.02-2.37,1.48-7.27,3.52-7.78l9.74-2.42,8.76,10.89c3.77,4.68,6.18,9.73,8.88,15.25l8.51,12.24c4.01-6.82-1.1-11.32,4.06-18.89,1.08-1.58.96-6.39-.15-7.71-2.83-1.8-4.01-7.76-1.28-10.07,3.78-3.2,10.14-.36,12.72,3.21l2.4-1.55c1.81,2.72,5.25,4.66,7.94,4.94-.05-2.93.06-5.76,2.12-7.76,1.41-1.36,4.32-1.83,6.97-2.14l8.84-1.02,18.21.08-.03,7.48,3.89-4.98c3.25-.5,4.99-1.95,7.76-3.44,8.59-4.64,19.32-3.07,27.76,1.63,3.64,6.07,4.91,12.64.66,15.51-1.77,1.2-6.72,1.45-7.53-.34l-2.53-5.59c-.65-1.44-4.89-1.65-6.63-1.46-7.41.83-15.82,9.46-11.49,16.4,9.61.3,19.44,1.6,26.64,8.42,8.98,8.5,4.82,29.27-5.78,36.83l-5.89,1.11-8.79,1.28c-8.77,1.28-11.35-.1-17.59-10.57l-4.74-5.44,2.26-5.79c.59-1.51,2.73-4.04,4.12-5.76,5.68,3.05,7.46,7.42,9.72,13.42,2,.51,8.11,1.05,9.52-.81l8.28-10.98c.21-2.43-1.77-6.83-4.15-8.27-2.05-1.24-4.97.07-7.44,1.06-4.71,1.9-13.47,1.88-17.22-2.36-6.21-7.03-5.25-18.4-1.72-26.17l-7.66,1.94-8.57,1.55.31,6.05.03,21.09-1.02,25.98c-.08,2.1-.36,5.79-.88,7.87-2.52,1.05-6.38.85-8.32.01l-7.88-3.41c-.64-3.45,1.29-8.6,2.4-12.45,1.27-4.39.94-8.88,1.08-13.01l1.06-32.2-16.57-.54-.27,14.81-.7,9.16-.42,38.79-3.85,2.68c-3.88,2.71-9.27,1.18-11.09-3.14l-12.2-28.95-2.93-5.73-4.31-7.49ZM821.12,762.17c-1.62-.46-3.05-.96-2.65-1.53.28-.39,1.92-2.7,1.04-1.47,1.27,2.49,2.01,1.4,1.59-1.43l-6.34-.86,1.46,18.76,6.73-2.36-1.83-11.11ZM819.26,804.53c1.2-.33,3.41-1.15,3.37-1.94l-.55-12.25-7.52-1.27,1.46,7.87c.08-.08-.72,1.17-.45,1.46l1.62,1.72-2.22,1.05c-.62.29-.39,3.45.3,3.43l3.99-.09Z"/>
        <path d="M43.73,821.76c-4.07-3.44-5.8-8.73-7.2-13.4l-4.14-13.8c-1.48-4.92-7.16-7.28-11.14-6.18l-2.46,28.42-.85-1.28-.16-2.8c-4.08,2.38-7.66-.74-9.89,2.18-.24.31-1.21-.4-1.3-.79l-.62-2.8-2.31,3.28c.1-23.86.91-45.77,2.62-68.92,15.12-7.56,43.52-3.74,46.3,9.01,2.59,11.91-5.08,23.88-16.53,26.89,4.38,2.77,9.21,5.9,10.71,10.69l5.91,18.8c.51-2.75.79-6.02.53-9.16-1.1-13.39-.71-25.9,1.48-39.26.82-5-.7-10.83-.92-16.68,4.8-2.87,9.79-3.02,15.24-3.41l17.52-1.26c1.87,4.61,1.09,10.45-.16,14.69l-18.26.23.73,17.21,10.7-1.39c3.94,4.4,3.4,9.19,3.03,14.59l-13.46,1.23c-.52,4.75-.31,9.6.2,15.64l14.8-.19c1.23-.02,3.39.83,4.73,1.37l3.27-11.63-3.01-1.49,3.98-4.33,14.78-49.11c.37-1.21,2.19-3.41,3.25-3.98,1.95-1.04,10.24,1.14,11.32,4.48l6.41,19.74,3.71,10.15c3.6,9.85,5.34,20,8.12,30.63-.4-13.43.34-26.34,1.81-40.11l1.13-10.54,2.63-.16c.61-.04.3-1.75-.12-3.62.76-.55,4.43-.53,6.2.55l1.08-3,1.37,2.73c.14.28.28.76.52.55l2.36-2.05c1.83,6,1.49,12.13.55,18.49-1.98,13.39-2.43,25.63-1.4,39.47l16.22-.55c4.3-.15,7.29,2.53,7.24,7.32-.03,2.6-1.84,8.57-4.46,9.43l-21.81.55-8.72.07.79-1.68-2.61-8.06-1.79,4.19-5.78-.82c-2.37-.34-4.61.97-6.83,2.53l-3.47-18.06-.9-7.16c-7.43,5.86-12.68-1.01-17.35,2.9-1.76,8.21-4.42,20.58-9.32,23-2.74,1.35-5.37-3.02-11.01-.92l2.43,1.63c.56.38-1.68,1.5-2.4,1.53l-24.03,1.17c-3.68.18-4.63-.04-6.79,2.98s-9.04,3.16-12.46.27ZM36.67,754.95l-18.68-1.58c2.28,8.52,3.34,14.78,3.14,22.53,9.16-2.71,15.47-10.58,15.54-20.95ZM122.8,780.5l-3.13-14.5-4.14-11.18-6.53,26.48,13.8-.8ZM65.76,766.04l-1.03-8.6-6.28-.53,1.64,18.77,6.64-2.44-.97-7.2ZM60.7,804.84l5.93-1.24-1.05-13.4-7.07-1.21.04,5.46c0,.71,1.52,1.7,2.12,2.08-.4.47-1.42,1.52-1.13,1.84l1.88,2.08c-1.81.38-3.06.47-3,1.46.07,1.14,1.39,3.11,2.3,2.92Z"/>
        <path d="M207.95,782.5c-1.45-7.42,0-23.88,5.45-26.41l5.91-11.56c9.58-8.75,25.23-9.59,31.41.6,2.87,4.74,2.73,10.84-.74,14.97-1.2,1.43-6.09,1.7-7.76.87-3.42-8.13-8.19-16.51-15.39-15.64-8.15.99-10.36,37.91-5.95,52.73,3.11,3.34,8,4.85,12.6,5.64l2.02-6.25c3.05-2.8,5.09-6.25,5.95-9.96l1.6,6.29c1.25-5.66,3.01-10.69,5.65-16.12,2.72.94,3.04,2.9,3.4,6.87l2.99-20.4c1.16.02,1.93-.05,1.9.03-.08.17.62-1.48.67-1.48.06,0-1.01-.09-2.32-.18,1.65-4.89,2.89-11.28,6.83-15.17,4.57-4.5,11.41-9.24,17.48-9.06l6.37,1.22c10.01,2.17,16.36,11.86,17.47,22.32l2.12,19.94c2.03-2.44,1.38-5.28.76-8.19-.78-3.66.04-7.77-.13-11.61l-.94-20.19c3.53-2.63,11.2-4.36,15.29-1.47,5.5,3.9,6.03,11.08,8.54,16.68l9.88,21.97,15.48-39.31,8.95-2.57c.55-.16,2.38-.05,2.66.42l1.49,2.56.75-3.36c.15-.69,2.99-.32,3.05.37l.23,2.64c1.45,11.29,2.09,22.97,1.37,34.15l.93,7.34.09,29.6c0,2.4-2.04,4.8-4.48,5.06-4.17.45-12.04-1.93-11.93-6.37l.38-15.53,1.03-27.3c-3.75,6.05-4.33,11.84-6.76,17.63-2.91,6.94-5.07,13.81-6.87,21.66l-5.7-5.38c-1.21,3.92-6.38,3.77-8.2,2.3l-2.25-7.09-10.13-25.77.28,21-.34,27.92-12.95-.15-1.98-26.6-4.79,9.21c-1.62,3.12-3.22,8.39-6.55,10.49-7.63,4.8-19.06,6.81-27.25,2.76-8.77-4.34-11.46-14.55-12.88-23.66l-4.91,15.82-6.3,3.88c-5.58,3.44-15.1,2.51-20.61.14-6.56-2.82-8.77-7.33-9.91-13.19l-2.94-15.08ZM294.07,778.69l-1.31-11.79-1.75,7.3-3.75-18.79-7.94,1.8,6.26-5.89-6.8,1.13c-.56.09-1.92-.69-1.63-1.11l1.6-2.36-7.83,3.04c-8.08,15.48-9.32,40.65,2.73,51.31,1.5,1.33,6.47.67,8.25-.29l4.49-14.59,1.15,3.75,2.95-8.44,2.22,3.22c1.14-2.18,1.69-5.13,1.34-8.29Z"/>
        <path d="M762.88,747.01c.76,1.53-.38,5.63-.44,7.29l-.62,15.2-.85,43.46c-.07,3.47-1.47,4.82-4.25,6.1-4.44,2.04-8.94.65-10.91-4.04l-12.18-29.02-2.54-4.92-5.01-8.28-3.44-6.48,1.19,19.81c.15,2.44-.74,6.37-1.19,8.63,1.03,7.08,1.84,13.18.33,20.36l-11.16,2.9c-1.85-.67-3.72-.96-5.64-.84l-17.29,1.13c-4.8.31-10.91.96-15-.96-2.98-2.75-.46-7.63-.63-10.5-.86-14.85-1.33-28.59,1.16-43.31.91-5.37-.49-11.63-.75-17.56,5.08-3.41,10.49-3.04,16.31-3.47l16.39-1.21c1.99,4.61,1.39,10.97-.55,14.63l-17.84.39.59,17.16,10.9-1.43c3.8,4.3,3.54,9.27,2.99,14.47l-13.83,1.45.44,15.54,15.04-.25,4.53,1.14-.44-51.23c-.03-2.97.47-7.28,3.15-8.7,2.92-1.55,6.91-2.24,10.14-2.42l8.73,10.77c3.95,4.87,6.32,10.3,9.19,15.92l8.05,11.27c3.73-5.38.26-11.26,2.28-16.03,1.49-2.32,3.02-4.29,2.96-6.3-.14-5.03-6.28-5.94-3.22-14.17,4.19-2.86,11.3-.66,13.39,3.5ZM685.38,764.76l-.59-7.24-6.45-.81.32,4.01,1.22,15.11,6.12-2.66c1.32-1.39-.41-5.79-.63-8.41ZM680.91,804.74l5.53-1.31-1.12-13.15-6.88-1.38-.18,6.09,2.44,1.55c-.52.56-1.56,1.51-1.27,1.83l1.89,2.09c-1.91.3-3.06.39-3.12,1.33-.08,1.26,1.55,3.23,2.69,2.96Z"/>
        <path d="M804.34,797.53c-1.93,7.77-6.85,11.7-13.83,13.15l-7.49,1.55c-4.99-.53-10.09-.9-15.16-.32-2.11.24-5.59-1.25-5.55-3.53l.39-21.26,1.81-46.62c6.09-6.12,20.55-5.07,30.14-2.63.35.75.72,3.09.1,3.29l-3.48,1.17c.2.41,2.56,3.34,3.74,3.68s3.08-.06,4.94-.56l1.52-3.94c3.2,4.08,3.97,9.05,4.84,14.47,1.76,10.93,3.03,21.42.34,32.23l-2.32,9.32ZM785.5,798.08c5.25-4.25,6.12-11.11,6.25-16.98l.69-30.41c-5.12-2.2-10.54-3.14-15.83-3.24l.64,14.55.24,19.98.47,17.94c1.93-.27,6.11-.87,7.54-1.84Z"/>
        <path d="M439.47,788.82c-.66,12.25-1.19,19.17-14.32,23.13l-10.3.59c-.66.04-2.23-1.08-2.61-.92l-2.83,1.17-11.29-3.78,1.22-1.84,5.42,2.91-1.97-5.55c-2.16-6.08-7.31-12.25-7.26-19.06l.19-23.57-2.74,5.76c-.32-5.34,1.88-8.69,4.18-12.37l5.47-8.75c6.87-11,23.3-13.62,32.27-3.43,4.13,4.69,5.95,12.69,3.74,18.56-1.75,4.67-11.61,3.68-12.77-.29l-3.95-13.51c-.53-1.8-4.55-3.02-6.03-2.11-6.7,4.13-8.46,10.83-8.61,18.21l-.24,12.02c-.24,12.33.42,26.27,10.49,28.89,7.95-8.4,3.16-20.18,7.29-22.79,1.26-.79,4.32-.4,6.13-.16l5.87.78c1.58.21,2.72,4.4,2.63,6.1ZM433.8,796.29l-3.69-7.74-2.43,10.07,6.11-2.33Z"/>
        <path d="M474.88,815.09c-1.35.51-4.18.34-6.27-.27-2.25-.66-3.72-4.21-3.75-6.84l-.48-38.63,1.03-24.67c1.72,2.6,1.99,4.21,2.92,7.53l.89-7.83,1.56,4.38,2.93-7.95c.38-1.04,2.66-2.71,3.74-2.58s2.66,2.73,2.65,3.86l-.22,53.74c-.01,3.07-.97,7.25-2.29,9.38l-3.4,5.48c-.57-.72-1.83-2.02-2.19-1.5l-1.63,2.39c1.22-.19,2.51-.51,2.73-.06l1.76,3.56Z"/>
        <path d="M377.06,814.31c-2.37-5-1.81-9.78-1.83-14.71l-.14-37.35.79-17.42c1.68,2.68,1.84,3.96,2.76,7.37l.68-7.02,2,3.44,3.02-8.71c.23-.66,2.76-2.23,3.26-1.74l2.95,2.86-.49,28.97-.13,28.97c-.03,5.92-4.03,9.05-9.72,11.95,2.05.52,3.74.71,4.4,1.46s-.28,3.69-1.23,3.46l-6.32-1.54Z"/>
        <path d="M407.74,419.7l-6.5-5.1-5.82.69,2.5-8.64,3.38,2.96,3.39-1.78c.85-.45,1.93,1.93,2.04,2.93l1.02,8.94Z"/>
        <path d="M212.8,560.92c-.47,4.56-1.01,9.39-6.36,12.51l2.78-12.98c.74.98,1.47,1.95,1.48,1.93,0-.03.53-.37,2.11-1.46Z"/>
        <path d="M738.42,506.74c-6.32.09-10.64-6.81-14.9-9.97-4.52-3.34-7.54-6.59-8.8-12.01l-3.51-15.25-2.88-18.77c-1.04-6.77,6.35-30.18,4.82-49.29-.57-7.17,2.62-14.42,4.18-21.43l2.88-12.97c1.16-5.23,4.68-10.82,4.95-16.33.47-9.42,1.77-18.1,5.56-26.74l6.41-29.68c2.46-11.4,4.95-22.36,10.05-32.84l14.42-29.64c2.3-4.73,4.41-9.2,8.59-12.36,4.53-7.36,10.19-13.01,16.4-18.88l5.07-4.79c2.06-1.95,5.21-2.87,7.16-4.99,2.93-3.17,6.1-8.17,10.27-9.55,6.69-2.22,13.76,1.54,20.22,1.81,10.2.43,13.24,5.71,17.05,14.88,2.05,4.94,3.68,9.26,3.23,15.11l-1.36,17.97-10.61,42.25-4.69,25.25c-1.5,8.09-4.57,14.91-7.7,22.56l-5.73,20.35-4.48,13.54c-3.38,10.21-5.31,19.91-7.8,30.3l-12.15,50.76c-6.08,25.42-22.61,48.65-36.67,70.4l-19.98.29Z"/>
        <path d="M663.7,533.66c.31.28.33,2.86,0,2.61l-2.33-1.76c-.68-.51-3.26.75-3.76.05-.61-.85-1.46-2.87-1.99-4.21-4.48-1.44-6.09-5.62-6.61-10.06l-1.11-9.52c4.7,2.3,5.04,6.53,7.28,10.47,1.46,2.58,2.99,4.16,3.45,7.82l5.09,4.61Z"/>
        <path d="M650.86,541.79c-7.12-1.5-7.9-6.99-9.07-12.43-1-3.11-7-5.51-3.59-11.47,3.48,2.44,5.2,5.84,6.24,10.07,1.13,4.59,3.68,8.55,6.42,13.83Z"/>
        <path d="M827.75,421.48c-1.93-4.65.53-10.36,4.38-13.66,1.79,5.1.15,9.77-4.38,13.66Z"/>
        <path d="M502.11,568.54c2.57,3.84,1.79,11.12-3.2,12.34l2.68-16.18c1.02-6.2,2.5-11.97,5.17-18.2,3.5,4.7,1.56,10.59-2.25,13.44l-2.4,8.6Z"/>
      </g>
    </g>
  </g>
</svg>