<?xml version="1.0" encoding="UTF-8"?>
<svg id="Layer_2" data-name="Layer 2" xmlns="http://www.w3.org/2000/svg" viewBox="0 0 226.56 226.56">
  <defs>
    <style>
      .cls-1 {
        fill: #ef349e;
      }
    </style>
  </defs>
  <g id="Layer_2-2" data-name="Layer 2">
    <g>
      <path class="cls-1" d="M74.72,143.85c.22.04.32-.03,0,0h0Z"/>
      <path class="cls-1" d="M70.28,87.71c.07,0,.1,0,.16,0,.12-.2.23-.37.34-.5l-.5.51Z"/>
      <path class="cls-1" d="M1.67,91.3c-.04-.27-.08-.54-.1-.88-.01.39.03.66.1.88Z"/>
      <path class="cls-1" d="M199.88,141.62l-.16.49c.14-.2.17-.36.16-.49Z"/>
      <path class="cls-1" d="M156.51,91.4c.03-.06.11-.11.12-.17-.59-.16-2.13-.2-4.11-.18l-.12.6,4.11-.25Z"/>
      <path class="cls-1" d="M180.91,142.43c-.08,0-.16.02-.24.03.12,0,.2,0,.24-.03Z"/>
      <path class="cls-1" d="M226.54,98.54c-.05-1.27-.19-2.5-.18-3.87-.57,0-1.12-.03-1.65-.09-2.59-.1-3.16-.32-3.38-.58-.22-.26-.05-.56-1.45-.82-1.83-.19-1.69-.01-1.28.21.4.23,1.01.51.29.53l-4.19-.84c.3-.02.54-.03.73-.04.21-.02.38-.04.49-.06.23-.05.3-.11.26-.17-.08-.13-.56-.28-.81-.4-.13,0-.26,0-.39-.01l-.3-.02c-.19-.02-.39-.03-.59-.05-.4-.04-.82-.09-1.25-.13-.85-.1-1.72-.21-2.52-.28-1.61-.14-2.98-.11-3.42.49-3.9-.58-3.91-1.06-5.59-1.12.56.22,1.67.42,1.68.66-1.56-.53-.75.13-.11.25-2.39.52-12.38-2.19-12.88-.87v-.24c-.55.98.34,1.94-1.33,2.48l-1.11-.44-1.67.42c-1.12-.32-.57-.58-.57-.7-2.73.45-6.53-.09-9.83-.22l3.5,2.68c-2.79-.62-7.81-1.88-8.37-1.01l-1.67-.9c-5.59-1.72-3.9.75-6.13.23l-2.81-.98,2.79.02c-2.79-.5-3.91-.82-6.13-1.46,0,0-.02.02-.02.03.15.04.25.09.27.15l-.39.02c-.34.49-1.79.83-3.76.79-2.79-.14-4.98.59-9.44-.45l-.21.19c-.13-.18-.26-.38-.35-.63,3.15-.08,6.91-.23,9.77-.25l.07-.37c-2.5,0-5.34.36-7,.28-.72-.14-2.45-.83-1.72-1.36l-1.14.58,1.26-1.78c.78-3.45-.58-4.05-.58-9.05.48-2.4,1.63-3.56,2.66-1.97-1.24-2.19-.81-1-1.4-3.9.51-.45.62-.14,1.08.5.6-2.58-.46-1.59-.43-3.53-.96-.56-2.49-1.22-2.55-1.85l-.3.75c-.51-2.06-.75-4.31-.27-6.7l.48.09-.24-2.55.62-.16-.19-3.64-.17.5c-.08-.85-.29-3.66.03-5.26l.34.06c1.07-4.52-.33-8.25-.44-13.55l.7.7c.7-1.8-1.08-.49-.73-2.65l.86-.11c-1.13-1.89.24-2.45.67-3.75l-1.13.61.24-2.46c.37-2.71,1.42-1.66,2.01-1.26l-.89-1.84.99-.36c-1.16-1.35.19-1.35-.43-3.71.38-.19.59.4.75-.4l-1.4-3.89.62,2.35-1.45-.29c-.55-1.22-.51-2.05-.39-2.79.03-.13.07-.49.1-.79.03-.3.07-.61.09-.92.04-.62.05-1.28-.05-2l.43,2c-.35-4.87.27-5.26.59-8.36-.27,1.07-.67,2.55-.86.68-.08-1.4.51-1.09.67-2.62-.77.23-1.25-1.6-1.19-4.08-.6-.02-1.19-.07-1.73-.16.16-.14.34-.27.63-.36-.96.16-1.56.41-2.77.17.54-.36,1.1-.72,1.67-1.08-1.22.34-2.39.68-3.5,1.02-1.66-.29-4.61.49-4.09-.24l1.13-.22-6.99-.13-4.11-.13-.11-.86c-.79,1.18-4.36-.45-4.09,1.03-1.51-.81-5.94.57-5.05-1.1-2.63-.06-4.65.3-6.82.59-.27.03-.54.07-.82.1-.48.03-.96.06-1.45.09-1.02.05-2.06.09-3.17.11-2.21.03-4.65-.02-7.67-.22-1.46-.41-3.5-.66-5.88-.81-.19,2.51-.24,5.79-.25,9.08,0,1.65,0,3.31,0,4.9,0,.8,0,1.58,0,2.33,0,.69-.02,1.36-.03,2,.59,8.02,1.12,13.2,1.58,21.39-1.98,4.93.68,12.29-.44,17.59l.78,1.45c-1.25,3.52.28,8.91-.94,13.85.34,1.21.45,1.85.48,2.13.04-.22.19-.57.68-.67-.35,1.41.09,4.27-.91,4.06l-.1-.36c-1-.21.47,4.29-.4,5.86l1.07-.86-.18,2.67-.2-.72c.4,1.95.62,3.71.75,5.36l-1.49-1.05c-3.45-.78-4.05.58-9.05.58-2.4-.48-3.56-1.63-1.97-2.66-2.19,1.24-1,.81-3.9,1.4-.45-.51-.14-.62.5-1.08-2.58-.6-1.59.46-3.53.43-.56.96-1.22,2.49-1.85,2.55l.75.3c-2.06.51-4.31.75-6.7.27l.09-.48-2.55.24-.16-.62-3.64.19.5.17c-.85.08-3.66.29-5.26-.03l.06-.34c-4.52-1.07-8.25.33-13.55.44l.7-.7c-1.8-.7-.49,1.08-2.65.73l-.11-.86c-1.89,1.13-2.45-.24-3.75-.67l.61,1.13-2.46-.24c-2.71-.37-1.66-1.42-1.26-2.01l-1.84.89-.36-.99c-1.35,1.16-1.35-.19-3.71.43-.19-.38.4-.59-.4-.75l-3.89,1.4,2.35-.62-.29,1.45c-1.22.55-2.05.51-2.79.39-.13-.03-.49-.07-.79-.1-.3-.03-.61-.07-.92-.09-.62-.04-1.28-.05-2,.05l2-.43c-4.87.35-5.26-.27-8.36-.59,1.07.27,2.55.67.68.86-1.4.08-1.09-.51-2.62-.67.23.77-1.6,1.25-4.08,1.19-.02.6-.07,1.19-.16,1.73-.14-.16-.27-.34-.36-.63.16.96.41,1.56.17,2.77-.36-.54-.72-1.1-1.08-1.67.34,1.22.68,2.39,1.02,3.5-.29,1.66.49,4.61-.24,4.09l-.22-1.13-.13,6.99-.13,4.11-.86.11c1.18.79-.45,4.36,1.03,4.09-.81,1.51.57,5.94-1.1,5.05-.06,2.63.3,4.65.59,6.82.03.27.07.54.1.82.03.48.06.96.09,1.45.05,1.02.09,2.06.11,3.17.03,2.21-.02,4.65-.22,7.67-.41,1.46-.66,3.5-.81,5.88,2.51.19,5.79.24,9.08.25,1.65,0,3.31,0,4.9,0,.8,0,1.58,0,2.33,0,.69,0,1.36.02,2,.03,8.02-.59,13.2-1.12,21.39-1.58,4.93,1.98,12.29-.68,17.59.44l1.45-.78c3.52,1.25,8.91-.28,13.85.94,1.21-.34,1.85-.45,2.13-.48-.22-.04-.57-.19-.67-.68,1.41.35,4.27-.09,4.06.91l-.36.1c-.21,1,4.29-.47,5.86.4l-.86-1.07,2.67.18-.72.2c1.89-.39,3.6-.61,5.21-.74.08,6.42.28,13.1-.01,19.36l.41-.52c-.08,3.02.42,6.77-.24,9.06-.66,2.29,1.05,5.01,1.12,5.9.63,2.22-.4,4.26-.6,3.95.26,2.6,1.62,5.08,1.01,8.69-1.36,1.27,1.34,10.16-.2,10.27l.13.04c-1.08,4.77.76,9.27-.22,14.41,0,0-.11-.1-.22-.27l4.66,10.46.75-.44v.44h24.6c.69.12,1.41.25,2.13.4,1.46.29,2.82.62,4.17.88,1.41.26,2.67.45,3.33.46,1.2.31,2.49.34,3.75.28,1.27-.05,2.5-.19,3.87-.18,0-.57.03-1.12.09-1.65.1-2.59.32-3.16.58-3.38.26-.22.56-.05.82-1.45.19-1.83.01-1.69-.21-1.28-.23.4-.51,1.01-.53.29l.84-4.19c.02.3.03.54.04.73.02.21.04.38.06.49.05.23.11.3.17.26.13-.08.28-.56.4-.81,0-.13,0-.26.01-.39l.02-.3c.02-.19.03-.39.05-.59.04-.4.09-.82.13-1.25.1-.85.21-1.72.28-2.52.14-1.61.11-2.98-.49-3.42.58-3.9,1.06-3.91,1.12-5.59-.22.56-.42,1.67-.66,1.68.53-1.56-.13-.75-.25-.11-.52-2.39,2.19-12.38.87-12.88h.24c-.98-.55-1.94.34-2.48-1.33l.44-1.11-.42-1.67c.32-1.12.58-.57.7-.57-.45-2.73.09-6.53.22-9.83l-2.68,3.5c.62-2.79,1.88-7.81,1.01-8.37l.9-1.67c1.72-5.59-.75-3.9-.23-6.13l.98-2.81-.02,2.79c.5-2.79.82-3.91,1.46-6.13,0,0-.02-.02-.03-.02-.04.15-.09.25-.15.27l-.02-.39c-.49-.34-.83-1.79-.79-3.76.14-2.79-.59-4.98.45-9.44l-.16-.18c.2,0,.41,0,.61,0,.08,3.07.22,6.65.24,9.4l.37.07c0-2.5-.36-5.34-.28-7,.14-.72.83-2.45,1.36-1.72l-.39-.77c6.46-.08,13.18-.28,19.48.01l-.52-.41c3.02.08,6.77-.42,9.06.24,2.29.66,5.01-1.05,5.9-1.12,2.22-.63,4.26.4,3.95.6,2.6-.26,5.08-1.62,8.69-1.01,1.27,1.36,10.16-1.34,10.27.2l.04-.13c4.77,1.08,9.27-.76,14.41.22,0,0-.1.11-.27.22l10.46-4.66-.44-.75h.44v-24.6c.12-.69.25-1.41.4-2.13.29-1.46.62-2.82.88-4.17.26-1.41.45-2.67.46-3.33.31-1.2.34-2.49.28-3.75Z"/>
      <path class="cls-1" d="M143.88,89.6l.34-.17c-.15.06-.26.11-.34.17Z"/>
      <path class="cls-1" d="M175.27,92.62c.07,0,.14,0,.21.01l-.77-.59.57.58Z"/>
      <path class="cls-1" d="M217.81,92.27c-2.69-.13-2.83-.03-2.45.14.97.02,1.81,0,2.45-.14Z"/>
      <path class="cls-1" d="M89.18,74.72c-.04.22.03.32,0,0h0Z"/>
      <path class="cls-1" d="M145.32,70.28c0,.07,0,.1,0,.16.2.12.37.23.5.34l-.51-.5Z"/>
      <path class="cls-1" d="M141.73,1.67c.27-.04.54-.08.88-.1-.39-.01-.66.03-.88.1Z"/>
      <path class="cls-1" d="M91.41,199.88l-.49-.16c.2.14.36.17.49.16Z"/>
      <path class="cls-1" d="M141.63,156.51c.06.03.11.11.17.12.16-.59.2-2.13.18-4.11l-.6-.12.25,4.11Z"/>
      <path class="cls-1" d="M143.42,143.88l.17.34c-.06-.15-.11-.26-.17-.34Z"/>
      <path class="cls-1" d="M90.6,180.91c0-.08-.02-.16-.03-.24,0,.12,0,.2.03.24Z"/>
      <path class="cls-1" d="M140.41,175.27c0,.07,0,.14-.01.21l.59-.77-.58.57Z"/>
      <path class="cls-1" d="M140.75,217.81c.13-2.69.03-2.83-.14-2.45-.02.97,0,1.81.14,2.45Z"/>
    </g>
  </g>
</svg>